<?xml version="1.0" encoding="UTF-8"?>
<svg xmlns="http://www.w3.org/2000/svg" width="500" height="380" viewBox="0 0 500 380">
  <defs>
    <filter id="softGlow" x="-50%" y="-50%" width="200%" height="200%">
      <feGaussianBlur stdDeviation="20" result="blur"/>
      <feBlend in="SourceGraphic" in2="blur" mode="screen"/>
    </filter>
    <linearGradient id="nodeGrad" x1="0" x2="1">
      <stop offset="0%" stop-color="#7fc7ff">
        <animate attributeName="stop-color" values="#7fc7ff;#2bffea;#7fc7ff" dur="4s" repeatCount="indefinite" />
      </stop>
      <stop offset="100%" stop-color="#2b8cff">
        <animate attributeName="stop-color" values="#2b8cff;#00ffd5;#2b8cff" dur="4s" repeatCount="indefinite" />
      </stop>
    </linearGradient>
    <linearGradient id="flowGrad" x1="0" x2="1">
      <stop offset="0%" stop-color="#7fc7ff" stop-opacity="0.0"/>
      <stop offset="50%" stop-color="#00ffd5" stop-opacity="0.8"/>
      <stop offset="100%" stop-color="#7fc7ff" stop-opacity="0.0"/>
      <animate attributeName="x1" values="0;1" dur="2s" repeatCount="indefinite"/>
      <animate attributeName="x2" values="1;2" dur="2s" repeatCount="indefinite"/>
    </linearGradient>
  </defs>

  <!-- Animated circuit lines -->
  <g stroke="url(#flowGrad)" stroke-width="2" fill="none">
    <path d="M40,320 C120,260 200,300 300,240" stroke-linecap="round" />
    <path d="M60,260 C150,180 260,200 420,140" stroke-linecap="round" />
    <path d="M20,180 C120,120 220,150 380,90" stroke-linecap="round" />
  </g>

  <!-- AI node cluster with pulse animation -->
  <g stroke="#bfe9ff" stroke-width="2" fill="url(#nodeGrad)" filter="url(#softGlow)">
    <line x1="360" y1="120" x2="420" y2="170" stroke="#9fd6ff" stroke-opacity="0.7" stroke-width="2" />
    <line x1="320" y1="160" x2="380" y2="210" stroke="#9fd6ff" stroke-opacity="0.7" stroke-width="2" />
    <line x1="280" y1="120" x2="340" y2="160" stroke="#9fd6ff" stroke-opacity="0.7" stroke-width="2" />
    <circle cx="360" cy="120" r="14">
      <animate attributeName="r" values="14;18;14" dur="2s" repeatCount="indefinite" />
    </circle>
    <circle cx="420" cy="170" r="10" fill-opacity="0.95">
      <animate attributeName="r" values="10;14;10" dur="2.5s" repeatCount="indefinite" />
    </circle>
    <circle cx="320" cy="160" r="12" fill-opacity="0.95">
      <animate attributeName="r" values="12;16;12" dur="2.2s" repeatCount="indefinite" />
    </circle>
    <circle cx="380" cy="210" r="9" fill-opacity="0.95">
      <animate attributeName="r" values="9;13;9" dur="1.8s" repeatCount="indefinite" />
    </circle>
    <circle cx="280" cy="120" r="11" fill-opacity="0.95">
      <animate attributeName="r" values="11;15;11" dur="2.8s" repeatCount="indefinite" />
    </circle>
    <circle cx="400" cy="100" r="5" fill-opacity="0.85">
      <animate attributeName="r" values="5;7;5" dur="1.5s" repeatCount="indefinite" />
    </circle>
    <circle cx="300" cy="200" r="6" fill-opacity="0.85">
      <animate attributeName="r" values="6;8;6" dur="1.7s" repeatCount="indefinite" />
    </circle>
  </g>

  <!-- Abstract computer -->
  <g transform="translate(60,70)" stroke="#8fbfff" stroke-width="2" fill="none">
    <rect x="0" y="0" rx="8" ry="8" width="200" height="120"/>
    <line x1="12" y1="20" x2="188" y2="20" stroke-opacity="0.5"/>
    <line x1="12" y1="40" x2="160" y2="40" stroke-opacity="0.3"/>
    <line x1="12" y1="60" x2="180" y2="60" stroke-opacity="0.3"/>
    <line x1="12" y1="80" x2="150" y2="80" stroke-opacity="0.3"/>
    <line x1="80" y1="120" x2="120" y2="150"/>
    <line x1="120" y1="150" x2="80" y2="150"/>
    <line x1="80" y1="150" x2="120" y2="120"/>
  </g>

  <!-- Animated data particles -->
  <g>
    <circle cx="260" cy="40" r="3" fill="#dff3ff">
      <animateTransform attributeName="transform" type="translate" values="0,0;0,10;0,0" dur="3s" repeatCount="indefinite"/>
    </circle>
    <circle cx="272" cy="54" r="2.5" fill="#e6f7ff">
      <animateTransform attributeName="transform" type="translate" values="0,0;0,-8;0,0" dur="2.5s" repeatCount="indefinite"/>
    </circle>
    <circle cx="245" cy="70" r="3" fill="#cfefff">
      <animateTransform attributeName="transform" type="translate" values="0,0;0,6;0,0" dur="2.8s" repeatCount="indefinite"/>
    </circle>
  </g>
</svg>
