<svg t="1755482839196" class="icon" viewBox="0 0 1024 1024" version="1.1" xmlns="http://www.w3.org/2000/svg" p-id="7494" width="64" height="64"><path d="M512 0c282.763636 0 512 229.236364 512 512s-229.236364 512-512 512S0 794.763636 0 512 229.236364 0 512 0z m0 922.437818c226.676364 0 410.437818-183.761455 410.437818-410.437818 0-226.676364-183.738182-410.461091-410.437818-410.461091C285.323636 101.538909 101.562182 285.323636 101.562182 512S285.323636 922.437818 512 922.437818z m292.561455-370.152727v227.909818H549.352727v-73.658182h173.730909v-84.107636h-173.730909V394.705455h173.730909v-77.21891h-173.730909v-73.704727h255.208728v227.723637h-173.707637v77.195636h173.707637v3.560727z m-585.12291 0v-3.560727h173.707637v-77.195637H219.438545v-227.723636h255.162182v73.704727H300.916364v77.218909h173.707636v227.700364H300.916364v84.107636h173.707636v73.658182H219.461818V552.261818z" fill="#d81e06" p-id="7495"></path></svg>